<svg width="20" height="18" viewBox="0 0 20 18" fill="none" xmlns="http://www.w3.org/2000/svg">
<path d="M0 15.9582L6.02547 0L8.70808 5.35248H11.2087L13.9797 0L20 15.9582L16.2152 14.2193L13.9797 14.7311L12.1289 16.9765L10.0026 18L7.85547 16.9765L6.05147 14.7311L3.87315 14.2193L0 15.9582Z" fill="#852803"/>
<path d="M3.23782 9.7998L1.55859 14.1928L3.7837 13.1791L6.73145 13.9641L3.23782 9.7998Z" fill="white"/>
<path d="M16.7502 9.7998L18.4346 14.1928L16.2043 13.1791L13.2617 13.9641L16.7502 9.7998Z" fill="white"/>
<path d="M3.23828 9.79969L6.13404 2.14697L8.23958 6.21248H11.7904L13.8335 2.14697L16.7501 9.79969L11.5565 16.2047L10.0124 15.0713L8.45273 16.2047L3.23828 9.79969Z" fill="#FF7300"/>
<path d="M8.44141 6.81055H11.5139L10.0115 10.6577L8.44141 6.81055Z" fill="#FF6800"/>
<path d="M7.48298 6.20234H5.28906L6.20926 3.80566L7.48298 6.20234Z" fill="#FF6800"/>
<path d="M14.7213 6.20234H12.5273L13.8115 3.80566L14.7213 6.20234Z" fill="#FF6800"/>
<path d="M12.5294 9.7998H13.6264L13.1793 10.6108L11.5156 11.8586V10.954L12.5294 9.7998Z" fill="#852803"/>
<path d="M7.47586 9.7998H6.37891L6.82601 10.6108L8.48964 11.8586V10.954L7.47586 9.7998Z" fill="#852803"/>
</svg>
